<?xml version="1.0" standalone="no"?><!DOCTYPE svg PUBLIC "-//W3C//DTD SVG 1.1//EN" "http://www.w3.org/Graphics/SVG/1.1/DTD/svg11.dtd"><svg t="1638340606136" class="icon" viewBox="0 0 1024 1024" version="1.1" xmlns="http://www.w3.org/2000/svg" p-id="9328" width="160" height="160" xmlns:xlink="http://www.w3.org/1999/xlink"><defs><style type="text/css"></style></defs><path d="M766.065 76.257c-17.292-17.326-45.942-17.326-63.234 0l-178.987 179.33c-17.294 17.326-17.294 46.027 0 63.356l178.987 179.33c17.292 17.326 45.942 17.326 63.234 0l178.987-179.33c17.292-17.329 17.292-45.971 0-63.297L766.065 76.257z m-21.079 21.176l178.987 179.273c5.997 6.067 5.997 15.11 0 21.12l-178.987 179.33c-5.996 6.068-15.02 6.068-21.076 0l-178.987-179.33c-5.999-6.01-5.999-15.053 0-21.12L723.91 97.433c6.055-6.065 15.08-6.065 21.076 0z m-189.41 503.459c-24.513 0-44.718 20.243-44.718 44.803v268.822c0 24.558 20.202 44.802 44.717 44.802h268.308c24.513 0 44.718-20.244 44.718-44.802V645.693c0-24.56-20.203-44.804-44.718-44.804H555.575z m0 29.866h268.307c8.53 0 14.908 6.39 14.908 14.935v268.822c0 8.546-6.376 14.933-14.908 14.933H555.575c-8.527 0-14.906-6.387-14.906-14.933V645.693c0.003-8.546 6.379-14.935 14.906-14.935zM108.398 152.855c-24.5 0-44.718 20.243-44.718 44.804V466.48c0 24.56 20.219 44.803 44.718 44.803h268.307c24.513 0 44.718-20.243 44.718-44.803V197.656c0-24.56-20.205-44.803-44.718-44.803H108.4z m0 29.868h268.307c8.53 0 14.906 6.388 14.906 14.933v268.822c0 8.546-6.376 14.936-14.906 14.936H108.4c-8.53 0-14.906-6.39-14.906-14.936V197.656c0-8.545 6.376-14.933 14.906-14.933z m0 418.169c-24.5 0-44.718 20.243-44.718 44.803v268.822c0 24.558 20.219 44.802 44.718 44.802h268.307c24.513 0 44.718-20.244 44.718-44.802V645.693c0-24.56-20.205-44.804-44.718-44.804H108.4z m0 29.866h268.307c8.53 0 14.906 6.39 14.906 14.935v268.822c0 8.546-6.376 14.933-14.906 14.933H108.4c-8.53 0-14.906-6.387-14.906-14.933V645.693c0-8.546 6.376-14.935 14.906-14.935z" p-id="9329" fill="#0065f6"></path></svg>