<?xml version="1.0" standalone="no"?><!DOCTYPE svg PUBLIC "-//W3C//DTD SVG 1.1//EN" "http://www.w3.org/Graphics/SVG/1.1/DTD/svg11.dtd"><svg t="1638340141960" class="icon" viewBox="0 0 1199 1024" version="1.1" xmlns="http://www.w3.org/2000/svg" p-id="1843" width="187.34375" height="160" xmlns:xlink="http://www.w3.org/1999/xlink"><defs><style type="text/css"></style></defs><path d="M1179.927012 399.494284l-144.441157-78.271957 144.441157-78.15575c6.344048-3.172024 9.516073-8.579242 9.516073-16.57171 0-7.873392-3.172024-13.399686-9.516073-16.689353L781.860211 1.309841c-6.232145-1.523605-12.576194-1.523605-18.920242 0L601.812329 88.987402 440.68182 1.309841c-6.232145-1.523605-12.576194-1.523605-18.924546 0L23.696212 209.923156c-6.349787 3.172024-9.521811 8.698319-9.521812 16.571711 0 7.874826 3.172024 13.399686 9.521812 16.689352l144.557363 78.15575L23.696212 399.494284c-6.349787 3.172024-9.521811 8.698319-9.521812 16.57171s3.172024 13.399686 9.521812 16.571711l180.049316 94.726025v267.843085c0 7.873392 3.172024 13.399686 9.520377 16.57171l379.142255 208.495674h2.348531c1.529343 1.525039 3.877875 2.348532 7.055638 2.348531 3.17059 0 5.519121-0.823492 7.049899-2.348531h2.466174l379.023178-208.613316c6.349787-3.172024 9.521811-8.579242 9.521812-16.57171V527.36373l180.055055-94.726025c6.344048-3.172024 9.516073-8.580677 9.516072-16.571711-0.001435-7.873392-3.173459-13.399686-9.517507-16.57171zM763.191033 64.558081l338.329164 177.056624-127.710199 69.464605L639.934006 131.801838l123.257027-67.243757zM102.103026 241.613271L440.426451 64.558081l123.258463 67.245192-333.877427 179.274602-127.704461-69.464604z m0 179.277471l127.704461-69.464604 333.877427 179.276036-123.258463 67.243757L102.103026 420.890742z m481.700067 524.38395L261.150415 768.219502V544.14777l170.160233 89.582784c1.558036 1.446133 4.557902 2.225151 9.002466 2.225151 4.559336 0 7.559202-0.779018 9.005335-2.225151l134.48321-71.685452v383.22959z m18.009236-434.802601l-333.883165-179.274602 333.883165-179.277471 333.875992 179.277471-333.875992 179.274602z m340.432369 33.79332v223.954091L619.59202 945.274692V562.046537l134.487514 71.685451c1.553732 1.446133 4.441695 2.225151 8.999596 2.225152 4.557902 0 7.557767-0.779018 9.003901-2.225152l170.161667-89.466577v-0.117641h0.222372l-0.222372 0.117641z m-179.053665 53.68052l-123.257027-67.243757 333.877426-179.276036 127.7102 69.464604-338.330599 177.055189z" fill="#0065f6" p-id="1844"></path></svg>